ply
format ascii 1.0
comment : MagicaVoxel @ Ephtracy
element vertex 104
property float x
property float y
property float z
property uchar red
property uchar green
property uchar blue
element face 26
property list uchar int vertex_index
end_header
-5.7 0 0.6 102 255 0
-5.7 0 0.7 102 255 0
-5.7 0.1 0.7 102 255 0
-5.7 0.1 0.6 102 255 0
-5.7 0.1 0.7 255 0 0
-5.7 0.1 0.8 255 0 0
-5.7 0.2 0.8 255 0 0
-5.7 0.2 0.7 255 0 0
-5.7 -0.1 0.7 255 0 0
-5.7 -0.1 0.8 255 0 0
-5.7 0 0.8 255 0 0
-5.7 0 0.7 255 0 0
-5.8 0 0.7 255 0 0
-5.8 0 0.8 255 0 0
-5.8 0.1 0.8 255 0 0
-5.8 0.1 0.7 255 0 0
-5.6 0 0.6 102 255 0
-5.6 0.1 0.6 102 255 0
-5.6 0.1 0.7 102 255 0
-5.6 0 0.7 102 255 0
-5.5 0 0.7 255 0 0
-5.5 0.1 0.7 255 0 0
-5.5 0.1 0.8 255 0 0
-5.5 0 0.8 255 0 0
-5.6 0.1 0.7 255 0 0
-5.6 0.2 0.7 255 0 0
-5.6 0.2 0.8 255 0 0
-5.6 0.1 0.8 255 0 0
-5.6 -0.1 0.7 255 0 0
-5.6 0 0.7 255 0 0
-5.6 0 0.8 255 0 0
-5.6 -0.1 0.8 255 0 0
-5.7 0 0.6 102 255 0
-5.6 0 0.6 102 255 0
-5.6 0 0.7 102 255 0
-5.7 0 0.7 102 255 0
-5.6 0 0.7 255 0 0
-5.5 0 0.7 255 0 0
-5.5 0 0.8 255 0 0
-5.6 0 0.8 255 0 0
-5.7 -0.1 0.7 255 0 0
-5.6 -0.1 0.7 255 0 0
-5.6 -0.1 0.8 255 0 0
-5.7 -0.1 0.8 255 0 0
-5.8 0 0.7 255 0 0
-5.7 0 0.7 255 0 0
-5.7 0 0.8 255 0 0
-5.8 0 0.8 255 0 0
-5.7 0.1 0.6 102 255 0
-5.7 0.1 0.7 102 255 0
-5.6 0.1 0.7 102 255 0
-5.6 0.1 0.6 102 255 0
-5.6 0.1 0.7 255 0 0
-5.6 0.1 0.8 255 0 0
-5.5 0.1 0.8 255 0 0
-5.5 0.1 0.7 255 0 0
-5.7 0.2 0.7 255 0 0
-5.7 0.2 0.8 255 0 0
-5.6 0.2 0.8 255 0 0
-5.6 0.2 0.7 255 0 0
-5.8 0.1 0.7 255 0 0
-5.8 0.1 0.8 255 0 0
-5.7 0.1 0.8 255 0 0
-5.7 0.1 0.7 255 0 0
-5.7 0 0.6 102 255 0
-5.7 0.1 0.6 102 255 0
-5.6 0.1 0.6 102 255 0
-5.6 0 0.6 102 255 0
-5.6 0 0.7 255 0 0
-5.6 0.1 0.7 255 0 0
-5.5 0.1 0.7 255 0 0
-5.5 0 0.7 255 0 0
-5.7 0.1 0.7 255 0 0
-5.7 0.2 0.7 255 0 0
-5.6 0.2 0.7 255 0 0
-5.6 0.1 0.7 255 0 0
-5.7 -0.1 0.7 255 0 0
-5.7 0 0.7 255 0 0
-5.6 0 0.7 255 0 0
-5.6 -0.1 0.7 255 0 0
-5.8 0 0.7 255 0 0
-5.8 0.1 0.7 255 0 0
-5.7 0.1 0.7 255 0 0
-5.7 0 0.7 255 0 0
-5.7 0 0.8 255 214 50
-5.6 0 0.8 255 214 50
-5.6 0.1 0.8 255 214 50
-5.7 0.1 0.8 255 214 50
-5.6 0 0.8 255 0 0
-5.5 0 0.8 255 0 0
-5.5 0.1 0.8 255 0 0
-5.6 0.1 0.8 255 0 0
-5.7 0.1 0.8 255 0 0
-5.6 0.1 0.8 255 0 0
-5.6 0.2 0.8 255 0 0
-5.7 0.2 0.8 255 0 0
-5.7 -0.1 0.8 255 0 0
-5.6 -0.1 0.8 255 0 0
-5.6 0 0.8 255 0 0
-5.7 0 0.8 255 0 0
-5.8 0 0.8 255 0 0
-5.7 0 0.8 255 0 0
-5.7 0.1 0.8 255 0 0
-5.8 0.1 0.8 255 0 0
4 0 1 2 3
4 4 5 6 7
4 8 9 10 11
4 12 13 14 15
4 16 17 18 19
4 20 21 22 23
4 24 25 26 27
4 28 29 30 31
4 32 33 34 35
4 36 37 38 39
4 40 41 42 43
4 44 45 46 47
4 48 49 50 51
4 52 53 54 55
4 56 57 58 59
4 60 61 62 63
4 64 65 66 67
4 68 69 70 71
4 72 73 74 75
4 76 77 78 79
4 80 81 82 83
4 84 85 86 87
4 88 89 90 91
4 92 93 94 95
4 96 97 98 99
4 100 101 102 103
